<mxfile host="Electron" agent="Mozilla/5.0 (Windows NT 10.0; Win64; x64) AppleWebKit/537.36 (KHTML, like Gecko) draw.io/26.0.7 Chrome/128.0.6613.186 Electron/32.2.5 Safari/537.36" version="26.0.7">
  <diagram name="Page-1" id="jF39SW7kXcgcbTMz46J8">
    <mxGraphModel dx="1714" dy="516" grid="1" gridSize="10" guides="1" tooltips="1" connect="1" arrows="1" fold="1" page="1" pageScale="1" pageWidth="850" pageHeight="1100" math="0" shadow="0">
      <root>
        <mxCell id="0" />
        <mxCell id="1" parent="0" />
        <mxCell id="N5g3DJbwjMN8JbCqIwk_-1" value="&lt;div&gt;VitalDrops&lt;/div&gt;Database" style="strokeWidth=2;html=1;shape=mxgraph.flowchart.database;whiteSpace=wrap;" vertex="1" parent="1">
          <mxGeometry x="273" y="700" width="145" height="110" as="geometry" />
        </mxCell>
        <mxCell id="N5g3DJbwjMN8JbCqIwk_-17" value="" style="edgeStyle=none;rounded=0;orthogonalLoop=1;jettySize=auto;html=1;endArrow=none;startArrow=none;" edge="1" parent="1" source="N5g3DJbwjMN8JbCqIwk_-2" target="N5g3DJbwjMN8JbCqIwk_-8">
          <mxGeometry relative="1" as="geometry" />
        </mxCell>
        <mxCell id="N5g3DJbwjMN8JbCqIwk_-2" value="index.php" style="rounded=0;whiteSpace=wrap;html=1;" vertex="1" parent="1">
          <mxGeometry x="335" y="60" width="90" height="40" as="geometry" />
        </mxCell>
        <mxCell id="N5g3DJbwjMN8JbCqIwk_-3" value="whocanGiveBlood.php" style="rounded=0;whiteSpace=wrap;html=1;" vertex="1" parent="1">
          <mxGeometry x="710" y="60" width="130" height="40" as="geometry" />
        </mxCell>
        <mxCell id="N5g3DJbwjMN8JbCqIwk_-31" value="" style="edgeStyle=none;rounded=0;orthogonalLoop=1;jettySize=auto;html=1;endArrow=none;startArrow=none;" edge="1" parent="1" source="N5g3DJbwjMN8JbCqIwk_-4" target="N5g3DJbwjMN8JbCqIwk_-5">
          <mxGeometry relative="1" as="geometry" />
        </mxCell>
        <mxCell id="N5g3DJbwjMN8JbCqIwk_-4" value="socialActivities.php" style="rounded=0;whiteSpace=wrap;html=1;" vertex="1" parent="1">
          <mxGeometry x="90" y="60" width="110" height="40" as="geometry" />
        </mxCell>
        <mxCell id="N5g3DJbwjMN8JbCqIwk_-29" value="" style="edgeStyle=none;rounded=0;orthogonalLoop=1;jettySize=auto;html=1;endArrow=none;startArrow=none;" edge="1" parent="1" source="N5g3DJbwjMN8JbCqIwk_-5" target="N5g3DJbwjMN8JbCqIwk_-2">
          <mxGeometry relative="1" as="geometry" />
        </mxCell>
        <mxCell id="N5g3DJbwjMN8JbCqIwk_-5" value="aboutUs.php" style="rounded=0;whiteSpace=wrap;html=1;" vertex="1" parent="1">
          <mxGeometry x="220" y="60" width="100" height="40" as="geometry" />
        </mxCell>
        <mxCell id="N5g3DJbwjMN8JbCqIwk_-28" value="" style="edgeStyle=none;rounded=0;orthogonalLoop=1;jettySize=auto;html=1;endArrow=none;startArrow=none;" edge="1" parent="1" source="N5g3DJbwjMN8JbCqIwk_-6" target="N5g3DJbwjMN8JbCqIwk_-3">
          <mxGeometry relative="1" as="geometry" />
        </mxCell>
        <mxCell id="N5g3DJbwjMN8JbCqIwk_-6" value="howToSupportUs.php" style="rounded=0;whiteSpace=wrap;html=1;" vertex="1" parent="1">
          <mxGeometry x="560" y="60" width="130" height="40" as="geometry" />
        </mxCell>
        <mxCell id="N5g3DJbwjMN8JbCqIwk_-30" value="" style="edgeStyle=none;rounded=0;orthogonalLoop=1;jettySize=auto;html=1;endArrow=none;startArrow=none;" edge="1" parent="1" source="N5g3DJbwjMN8JbCqIwk_-7" target="N5g3DJbwjMN8JbCqIwk_-4">
          <mxGeometry relative="1" as="geometry" />
        </mxCell>
        <mxCell id="N5g3DJbwjMN8JbCqIwk_-7" value="news.php" style="rounded=0;whiteSpace=wrap;html=1;" vertex="1" parent="1">
          <mxGeometry x="-20" y="60" width="90" height="40" as="geometry" />
        </mxCell>
        <mxCell id="N5g3DJbwjMN8JbCqIwk_-27" value="" style="edgeStyle=none;rounded=0;orthogonalLoop=1;jettySize=auto;html=1;endArrow=none;startArrow=none;" edge="1" parent="1" source="N5g3DJbwjMN8JbCqIwk_-8" target="N5g3DJbwjMN8JbCqIwk_-6">
          <mxGeometry relative="1" as="geometry" />
        </mxCell>
        <mxCell id="N5g3DJbwjMN8JbCqIwk_-8" value="gallery.php" style="rounded=0;whiteSpace=wrap;html=1;" vertex="1" parent="1">
          <mxGeometry x="450" y="60" width="90" height="40" as="geometry" />
        </mxCell>
        <mxCell id="N5g3DJbwjMN8JbCqIwk_-32" value="memberLogin.php" style="rounded=0;whiteSpace=wrap;html=1;" vertex="1" parent="1">
          <mxGeometry x="394" y="160" width="110" height="40" as="geometry" />
        </mxCell>
        <mxCell id="N5g3DJbwjMN8JbCqIwk_-33" value="userLogin.php" style="rounded=0;whiteSpace=wrap;html=1;" vertex="1" parent="1">
          <mxGeometry x="666" y="160" width="90" height="40" as="geometry" />
        </mxCell>
        <mxCell id="N5g3DJbwjMN8JbCqIwk_-34" value="adminLogin.php" style="rounded=0;whiteSpace=wrap;html=1;" vertex="1" parent="1">
          <mxGeometry x="164" y="160" width="90" height="40" as="geometry" />
        </mxCell>
        <mxCell id="N5g3DJbwjMN8JbCqIwk_-35" value="donorLogin.php" style="rounded=0;whiteSpace=wrap;html=1;" vertex="1" parent="1">
          <mxGeometry x="-59" y="160" width="90" height="40" as="geometry" />
        </mxCell>
        <mxCell id="N5g3DJbwjMN8JbCqIwk_-39" value="" style="endArrow=none;html=1;rounded=0;" edge="1" parent="1">
          <mxGeometry width="50" height="50" relative="1" as="geometry">
            <mxPoint x="-10" y="130" as="sourcePoint" />
            <mxPoint x="710" y="130" as="targetPoint" />
          </mxGeometry>
        </mxCell>
        <mxCell id="N5g3DJbwjMN8JbCqIwk_-40" value="" style="edgeStyle=none;rounded=0;orthogonalLoop=1;jettySize=auto;html=1;" edge="1" parent="1" source="N5g3DJbwjMN8JbCqIwk_-2">
          <mxGeometry relative="1" as="geometry">
            <mxPoint x="370" y="110" as="sourcePoint" />
            <mxPoint x="380" y="130" as="targetPoint" />
          </mxGeometry>
        </mxCell>
        <mxCell id="N5g3DJbwjMN8JbCqIwk_-46" value="" style="edgeStyle=none;rounded=0;orthogonalLoop=1;jettySize=auto;html=1;" edge="1" parent="1">
          <mxGeometry relative="1" as="geometry">
            <mxPoint x="213" y="131" as="sourcePoint" />
            <mxPoint x="213" y="161" as="targetPoint" />
          </mxGeometry>
        </mxCell>
        <mxCell id="N5g3DJbwjMN8JbCqIwk_-47" value="" style="edgeStyle=none;rounded=0;orthogonalLoop=1;jettySize=auto;html=1;" edge="1" parent="1">
          <mxGeometry relative="1" as="geometry">
            <mxPoint x="447" y="131" as="sourcePoint" />
            <mxPoint x="447" y="161" as="targetPoint" />
          </mxGeometry>
        </mxCell>
        <mxCell id="N5g3DJbwjMN8JbCqIwk_-48" value="" style="edgeStyle=none;rounded=0;orthogonalLoop=1;jettySize=auto;html=1;" edge="1" parent="1">
          <mxGeometry relative="1" as="geometry">
            <mxPoint x="711" y="130" as="sourcePoint" />
            <mxPoint x="711" y="160" as="targetPoint" />
          </mxGeometry>
        </mxCell>
        <mxCell id="N5g3DJbwjMN8JbCqIwk_-49" value="" style="edgeStyle=none;rounded=0;orthogonalLoop=1;jettySize=auto;html=1;" edge="1" parent="1">
          <mxGeometry relative="1" as="geometry">
            <mxPoint x="-10" y="131" as="sourcePoint" />
            <mxPoint x="-10" y="161" as="targetPoint" />
          </mxGeometry>
        </mxCell>
        <mxCell id="N5g3DJbwjMN8JbCqIwk_-50" value="" style="endArrow=none;html=1;rounded=0;" edge="1" parent="1">
          <mxGeometry width="50" height="50" relative="1" as="geometry">
            <mxPoint x="-50" y="320" as="sourcePoint" />
            <mxPoint x="-50" y="201" as="targetPoint" />
          </mxGeometry>
        </mxCell>
        <mxCell id="N5g3DJbwjMN8JbCqIwk_-51" value="" style="endArrow=none;html=1;rounded=0;" edge="1" parent="1">
          <mxGeometry width="50" height="50" relative="1" as="geometry">
            <mxPoint x="172" y="550" as="sourcePoint" />
            <mxPoint x="172" y="201" as="targetPoint" />
          </mxGeometry>
        </mxCell>
        <mxCell id="N5g3DJbwjMN8JbCqIwk_-52" value="donorRegister.php" style="rounded=0;whiteSpace=wrap;html=1;" vertex="1" parent="1">
          <mxGeometry x="48" y="160" width="102" height="40" as="geometry" />
        </mxCell>
        <mxCell id="N5g3DJbwjMN8JbCqIwk_-53" value="adminRegister.php" style="rounded=0;whiteSpace=wrap;html=1;" vertex="1" parent="1">
          <mxGeometry x="269" y="160" width="111" height="40" as="geometry" />
        </mxCell>
        <mxCell id="N5g3DJbwjMN8JbCqIwk_-54" value="memberRegister.php" style="rounded=0;whiteSpace=wrap;html=1;" vertex="1" parent="1">
          <mxGeometry x="520" y="159" width="120" height="40" as="geometry" />
        </mxCell>
        <mxCell id="N5g3DJbwjMN8JbCqIwk_-55" value="userRegister.php" style="rounded=0;whiteSpace=wrap;html=1;" vertex="1" parent="1">
          <mxGeometry x="773" y="159" width="97" height="40" as="geometry" />
        </mxCell>
        <mxCell id="N5g3DJbwjMN8JbCqIwk_-57" value="" style="endArrow=none;html=1;rounded=0;" edge="1" parent="1">
          <mxGeometry width="50" height="50" relative="1" as="geometry">
            <mxPoint x="401" y="510" as="sourcePoint" />
            <mxPoint x="401" y="201" as="targetPoint" />
          </mxGeometry>
        </mxCell>
        <mxCell id="N5g3DJbwjMN8JbCqIwk_-58" value="" style="endArrow=none;html=1;rounded=0;" edge="1" parent="1">
          <mxGeometry width="50" height="50" relative="1" as="geometry">
            <mxPoint x="678" y="350" as="sourcePoint" />
            <mxPoint x="678" y="201" as="targetPoint" />
          </mxGeometry>
        </mxCell>
        <mxCell id="N5g3DJbwjMN8JbCqIwk_-61" value="" style="endArrow=classic;startArrow=classic;html=1;rounded=0;" edge="1" parent="1">
          <mxGeometry width="50" height="50" relative="1" as="geometry">
            <mxPoint x="251" y="183" as="sourcePoint" />
            <mxPoint x="271" y="183" as="targetPoint" />
          </mxGeometry>
        </mxCell>
        <mxCell id="N5g3DJbwjMN8JbCqIwk_-62" value="" style="endArrow=classic;startArrow=classic;html=1;rounded=0;" edge="1" parent="1">
          <mxGeometry width="50" height="50" relative="1" as="geometry">
            <mxPoint x="502" y="179" as="sourcePoint" />
            <mxPoint x="522" y="179" as="targetPoint" />
          </mxGeometry>
        </mxCell>
        <mxCell id="N5g3DJbwjMN8JbCqIwk_-63" value="" style="endArrow=classic;startArrow=classic;html=1;rounded=0;" edge="1" parent="1">
          <mxGeometry width="50" height="50" relative="1" as="geometry">
            <mxPoint x="755" y="179" as="sourcePoint" />
            <mxPoint x="775" y="179" as="targetPoint" />
          </mxGeometry>
        </mxCell>
        <mxCell id="N5g3DJbwjMN8JbCqIwk_-64" value="" style="endArrow=classic;startArrow=classic;html=1;rounded=0;" edge="1" parent="1">
          <mxGeometry width="50" height="50" relative="1" as="geometry">
            <mxPoint x="30" y="180" as="sourcePoint" />
            <mxPoint x="50" y="180" as="targetPoint" />
          </mxGeometry>
        </mxCell>
        <mxCell id="N5g3DJbwjMN8JbCqIwk_-65" value="donorHome.php" style="rounded=0;whiteSpace=wrap;html=1;" vertex="1" parent="1">
          <mxGeometry x="-38" y="224" width="90" height="30" as="geometry" />
        </mxCell>
        <mxCell id="N5g3DJbwjMN8JbCqIwk_-69" value="" style="endArrow=none;html=1;rounded=0;" edge="1" parent="1">
          <mxGeometry width="50" height="50" relative="1" as="geometry">
            <mxPoint x="-49" y="237" as="sourcePoint" />
            <mxPoint x="-40" y="237" as="targetPoint" />
          </mxGeometry>
        </mxCell>
        <mxCell id="N5g3DJbwjMN8JbCqIwk_-71" value="" style="endArrow=none;html=1;rounded=0;" edge="1" parent="1">
          <mxGeometry width="50" height="50" relative="1" as="geometry">
            <mxPoint x="-48" y="282" as="sourcePoint" />
            <mxPoint x="-39" y="282" as="targetPoint" />
          </mxGeometry>
        </mxCell>
        <mxCell id="N5g3DJbwjMN8JbCqIwk_-72" value="" style="endArrow=none;html=1;rounded=0;" edge="1" parent="1">
          <mxGeometry width="50" height="50" relative="1" as="geometry">
            <mxPoint x="-49" y="320" as="sourcePoint" />
            <mxPoint x="-40" y="320" as="targetPoint" />
          </mxGeometry>
        </mxCell>
        <mxCell id="N5g3DJbwjMN8JbCqIwk_-73" value="" style="endArrow=none;html=1;rounded=0;" edge="1" parent="1">
          <mxGeometry width="50" height="50" relative="1" as="geometry">
            <mxPoint x="173" y="236" as="sourcePoint" />
            <mxPoint x="182" y="236" as="targetPoint" />
          </mxGeometry>
        </mxCell>
        <mxCell id="N5g3DJbwjMN8JbCqIwk_-74" value="" style="endArrow=none;html=1;rounded=0;" edge="1" parent="1">
          <mxGeometry width="50" height="50" relative="1" as="geometry">
            <mxPoint x="172" y="317" as="sourcePoint" />
            <mxPoint x="181" y="317" as="targetPoint" />
          </mxGeometry>
        </mxCell>
        <mxCell id="N5g3DJbwjMN8JbCqIwk_-75" value="donorInsert.php" style="rounded=0;whiteSpace=wrap;html=1;" vertex="1" parent="1">
          <mxGeometry x="-38" y="267" width="90" height="30" as="geometry" />
        </mxCell>
        <mxCell id="N5g3DJbwjMN8JbCqIwk_-76" value="donorUpdateInfo.php" style="rounded=0;whiteSpace=wrap;html=1;" vertex="1" parent="1">
          <mxGeometry x="-39" y="309" width="119" height="30" as="geometry" />
        </mxCell>
        <mxCell id="N5g3DJbwjMN8JbCqIwk_-77" value="adminHome.php" style="rounded=0;whiteSpace=wrap;html=1;" vertex="1" parent="1">
          <mxGeometry x="183" y="223" width="90" height="30" as="geometry" />
        </mxCell>
        <mxCell id="N5g3DJbwjMN8JbCqIwk_-78" value="adminUpdateMember.php" style="rounded=0;whiteSpace=wrap;html=1;" vertex="1" parent="1">
          <mxGeometry x="183" y="455" width="147" height="30" as="geometry" />
        </mxCell>
        <mxCell id="N5g3DJbwjMN8JbCqIwk_-79" value="adminUpdateDonor.php" style="rounded=0;whiteSpace=wrap;html=1;" vertex="1" parent="1">
          <mxGeometry x="183" y="419" width="137" height="30" as="geometry" />
        </mxCell>
        <mxCell id="N5g3DJbwjMN8JbCqIwk_-80" value="adminAddBloodDonation.php" style="rounded=0;whiteSpace=wrap;html=1;" vertex="1" parent="1">
          <mxGeometry x="183" y="380" width="167" height="30" as="geometry" />
        </mxCell>
        <mxCell id="N5g3DJbwjMN8JbCqIwk_-81" value="admindeleteMember.php" style="rounded=0;whiteSpace=wrap;html=1;" vertex="1" parent="1">
          <mxGeometry x="183" y="341" width="137" height="30" as="geometry" />
        </mxCell>
        <mxCell id="N5g3DJbwjMN8JbCqIwk_-82" value="admindeleteDonor.php" style="rounded=0;whiteSpace=wrap;html=1;" vertex="1" parent="1">
          <mxGeometry x="182" y="304" width="128" height="30" as="geometry" />
        </mxCell>
        <mxCell id="N5g3DJbwjMN8JbCqIwk_-83" value="admininsert.php" style="rounded=0;whiteSpace=wrap;html=1;" vertex="1" parent="1">
          <mxGeometry x="183" y="264" width="90" height="30" as="geometry" />
        </mxCell>
        <mxCell id="N5g3DJbwjMN8JbCqIwk_-84" value="" style="endArrow=none;html=1;rounded=0;" edge="1" parent="1">
          <mxGeometry width="50" height="50" relative="1" as="geometry">
            <mxPoint x="172" y="435" as="sourcePoint" />
            <mxPoint x="181" y="435" as="targetPoint" />
          </mxGeometry>
        </mxCell>
        <mxCell id="N5g3DJbwjMN8JbCqIwk_-85" value="" style="endArrow=none;html=1;rounded=0;" edge="1" parent="1">
          <mxGeometry width="50" height="50" relative="1" as="geometry">
            <mxPoint x="173" y="281" as="sourcePoint" />
            <mxPoint x="182" y="281" as="targetPoint" />
          </mxGeometry>
        </mxCell>
        <mxCell id="N5g3DJbwjMN8JbCqIwk_-86" value="" style="endArrow=none;html=1;rounded=0;" edge="1" parent="1">
          <mxGeometry width="50" height="50" relative="1" as="geometry">
            <mxPoint x="173" y="355" as="sourcePoint" />
            <mxPoint x="182" y="355" as="targetPoint" />
          </mxGeometry>
        </mxCell>
        <mxCell id="N5g3DJbwjMN8JbCqIwk_-87" value="" style="endArrow=none;html=1;rounded=0;" edge="1" parent="1">
          <mxGeometry width="50" height="50" relative="1" as="geometry">
            <mxPoint x="173" y="395" as="sourcePoint" />
            <mxPoint x="182" y="395" as="targetPoint" />
          </mxGeometry>
        </mxCell>
        <mxCell id="N5g3DJbwjMN8JbCqIwk_-88" value="" style="endArrow=none;html=1;rounded=0;" edge="1" parent="1">
          <mxGeometry width="50" height="50" relative="1" as="geometry">
            <mxPoint x="173" y="469" as="sourcePoint" />
            <mxPoint x="182" y="469" as="targetPoint" />
          </mxGeometry>
        </mxCell>
        <mxCell id="N5g3DJbwjMN8JbCqIwk_-89" value="" style="endArrow=none;html=1;rounded=0;" edge="1" parent="1">
          <mxGeometry width="50" height="50" relative="1" as="geometry">
            <mxPoint x="173" y="549" as="sourcePoint" />
            <mxPoint x="182" y="549" as="targetPoint" />
          </mxGeometry>
        </mxCell>
        <mxCell id="N5g3DJbwjMN8JbCqIwk_-90" value="" style="endArrow=none;html=1;rounded=0;" edge="1" parent="1">
          <mxGeometry width="50" height="50" relative="1" as="geometry">
            <mxPoint x="173" y="509" as="sourcePoint" />
            <mxPoint x="182" y="509" as="targetPoint" />
          </mxGeometry>
        </mxCell>
        <mxCell id="N5g3DJbwjMN8JbCqIwk_-93" value="adminHomeUser.php" style="rounded=0;whiteSpace=wrap;html=1;" vertex="1" parent="1">
          <mxGeometry x="182" y="494" width="128" height="30" as="geometry" />
        </mxCell>
        <mxCell id="N5g3DJbwjMN8JbCqIwk_-94" value="adminHomeUserSuggestions.php" style="rounded=0;whiteSpace=wrap;html=1;" vertex="1" parent="1">
          <mxGeometry x="183" y="536" width="187" height="30" as="geometry" />
        </mxCell>
        <mxCell id="N5g3DJbwjMN8JbCqIwk_-101" value="" style="endArrow=none;html=1;rounded=0;" edge="1" parent="1">
          <mxGeometry width="50" height="50" relative="1" as="geometry">
            <mxPoint x="402" y="233" as="sourcePoint" />
            <mxPoint x="411" y="233" as="targetPoint" />
          </mxGeometry>
        </mxCell>
        <mxCell id="N5g3DJbwjMN8JbCqIwk_-102" value="" style="endArrow=none;html=1;rounded=0;" edge="1" parent="1">
          <mxGeometry width="50" height="50" relative="1" as="geometry">
            <mxPoint x="401" y="314" as="sourcePoint" />
            <mxPoint x="410" y="314" as="targetPoint" />
          </mxGeometry>
        </mxCell>
        <mxCell id="N5g3DJbwjMN8JbCqIwk_-103" value="memberHome.php" style="rounded=0;whiteSpace=wrap;html=1;" vertex="1" parent="1">
          <mxGeometry x="412" y="219" width="108" height="30" as="geometry" />
        </mxCell>
        <mxCell id="N5g3DJbwjMN8JbCqIwk_-104" value="memberAddMoneyDonation.php" style="rounded=0;whiteSpace=wrap;html=1;" vertex="1" parent="1">
          <mxGeometry x="412" y="452" width="178" height="30" as="geometry" />
        </mxCell>
        <mxCell id="N5g3DJbwjMN8JbCqIwk_-105" value="memberUpdateInfo.php" style="rounded=0;whiteSpace=wrap;html=1;" vertex="1" parent="1">
          <mxGeometry x="412" y="416" width="138" height="30" as="geometry" />
        </mxCell>
        <mxCell id="N5g3DJbwjMN8JbCqIwk_-106" value="memberHomeMoneyDonation.php" style="rounded=0;whiteSpace=wrap;html=1;" vertex="1" parent="1">
          <mxGeometry x="412" y="377" width="188" height="30" as="geometry" />
        </mxCell>
        <mxCell id="N5g3DJbwjMN8JbCqIwk_-107" value="memberAddBloodDonation.php" style="rounded=0;whiteSpace=wrap;html=1;" vertex="1" parent="1">
          <mxGeometry x="412" y="338" width="178" height="30" as="geometry" />
        </mxCell>
        <mxCell id="N5g3DJbwjMN8JbCqIwk_-108" value="memberHomeBloodDonation.php" style="rounded=0;whiteSpace=wrap;html=1;" vertex="1" parent="1">
          <mxGeometry x="411" y="301" width="189" height="30" as="geometry" />
        </mxCell>
        <mxCell id="N5g3DJbwjMN8JbCqIwk_-109" value="memberinsert.php" style="rounded=0;whiteSpace=wrap;html=1;" vertex="1" parent="1">
          <mxGeometry x="412" y="261" width="108" height="30" as="geometry" />
        </mxCell>
        <mxCell id="N5g3DJbwjMN8JbCqIwk_-110" value="" style="endArrow=none;html=1;rounded=0;" edge="1" parent="1">
          <mxGeometry width="50" height="50" relative="1" as="geometry">
            <mxPoint x="401" y="432" as="sourcePoint" />
            <mxPoint x="410" y="432" as="targetPoint" />
          </mxGeometry>
        </mxCell>
        <mxCell id="N5g3DJbwjMN8JbCqIwk_-111" value="" style="endArrow=none;html=1;rounded=0;" edge="1" parent="1">
          <mxGeometry width="50" height="50" relative="1" as="geometry">
            <mxPoint x="402" y="278" as="sourcePoint" />
            <mxPoint x="411" y="278" as="targetPoint" />
          </mxGeometry>
        </mxCell>
        <mxCell id="N5g3DJbwjMN8JbCqIwk_-112" value="" style="endArrow=none;html=1;rounded=0;" edge="1" parent="1">
          <mxGeometry width="50" height="50" relative="1" as="geometry">
            <mxPoint x="402" y="352" as="sourcePoint" />
            <mxPoint x="411" y="352" as="targetPoint" />
          </mxGeometry>
        </mxCell>
        <mxCell id="N5g3DJbwjMN8JbCqIwk_-113" value="" style="endArrow=none;html=1;rounded=0;" edge="1" parent="1">
          <mxGeometry width="50" height="50" relative="1" as="geometry">
            <mxPoint x="402" y="392" as="sourcePoint" />
            <mxPoint x="411" y="392" as="targetPoint" />
          </mxGeometry>
        </mxCell>
        <mxCell id="N5g3DJbwjMN8JbCqIwk_-114" value="" style="endArrow=none;html=1;rounded=0;" edge="1" parent="1">
          <mxGeometry width="50" height="50" relative="1" as="geometry">
            <mxPoint x="402" y="466" as="sourcePoint" />
            <mxPoint x="411" y="466" as="targetPoint" />
          </mxGeometry>
        </mxCell>
        <mxCell id="N5g3DJbwjMN8JbCqIwk_-116" value="" style="endArrow=none;html=1;rounded=0;" edge="1" parent="1">
          <mxGeometry width="50" height="50" relative="1" as="geometry">
            <mxPoint x="402" y="508" as="sourcePoint" />
            <mxPoint x="411" y="508" as="targetPoint" />
          </mxGeometry>
        </mxCell>
        <mxCell id="N5g3DJbwjMN8JbCqIwk_-117" value="memberReplaySuggestion.php" style="rounded=0;whiteSpace=wrap;html=1;" vertex="1" parent="1">
          <mxGeometry x="411" y="493" width="179" height="30" as="geometry" />
        </mxCell>
        <mxCell id="N5g3DJbwjMN8JbCqIwk_-119" value="userAddSuggestion.php" style="rounded=0;whiteSpace=wrap;html=1;" vertex="1" parent="1">
          <mxGeometry x="688" y="336" width="132" height="30" as="geometry" />
        </mxCell>
        <mxCell id="N5g3DJbwjMN8JbCqIwk_-120" value="userUpdateInfo.php" style="rounded=0;whiteSpace=wrap;html=1;" vertex="1" parent="1">
          <mxGeometry x="688" y="300" width="112" height="30" as="geometry" />
        </mxCell>
        <mxCell id="N5g3DJbwjMN8JbCqIwk_-121" value="userInsert.php" style="rounded=0;whiteSpace=wrap;html=1;" vertex="1" parent="1">
          <mxGeometry x="688" y="261" width="90" height="30" as="geometry" />
        </mxCell>
        <mxCell id="N5g3DJbwjMN8JbCqIwk_-122" value="userHome.php" style="rounded=0;whiteSpace=wrap;html=1;" vertex="1" parent="1">
          <mxGeometry x="688" y="222" width="90" height="30" as="geometry" />
        </mxCell>
        <mxCell id="N5g3DJbwjMN8JbCqIwk_-123" value="" style="endArrow=none;html=1;rounded=0;" edge="1" parent="1">
          <mxGeometry width="50" height="50" relative="1" as="geometry">
            <mxPoint x="677" y="316" as="sourcePoint" />
            <mxPoint x="686" y="316" as="targetPoint" />
          </mxGeometry>
        </mxCell>
        <mxCell id="N5g3DJbwjMN8JbCqIwk_-124" value="" style="endArrow=none;html=1;rounded=0;" edge="1" parent="1">
          <mxGeometry width="50" height="50" relative="1" as="geometry">
            <mxPoint x="678" y="236" as="sourcePoint" />
            <mxPoint x="687" y="236" as="targetPoint" />
          </mxGeometry>
        </mxCell>
        <mxCell id="N5g3DJbwjMN8JbCqIwk_-125" value="" style="endArrow=none;html=1;rounded=0;" edge="1" parent="1">
          <mxGeometry width="50" height="50" relative="1" as="geometry">
            <mxPoint x="678" y="276" as="sourcePoint" />
            <mxPoint x="687" y="276" as="targetPoint" />
          </mxGeometry>
        </mxCell>
        <mxCell id="N5g3DJbwjMN8JbCqIwk_-126" value="" style="endArrow=none;html=1;rounded=0;" edge="1" parent="1">
          <mxGeometry width="50" height="50" relative="1" as="geometry">
            <mxPoint x="678" y="350" as="sourcePoint" />
            <mxPoint x="687" y="350" as="targetPoint" />
          </mxGeometry>
        </mxCell>
        <mxCell id="N5g3DJbwjMN8JbCqIwk_-129" value="" style="endArrow=none;dashed=1;html=1;dashPattern=1 3;strokeWidth=2;rounded=0;" edge="1" parent="1">
          <mxGeometry width="50" height="50" relative="1" as="geometry">
            <mxPoint x="-63" y="641" as="sourcePoint" />
            <mxPoint x="-63" y="211" as="targetPoint" />
          </mxGeometry>
        </mxCell>
        <mxCell id="N5g3DJbwjMN8JbCqIwk_-130" value="" style="endArrow=none;dashed=1;html=1;dashPattern=1 3;strokeWidth=2;rounded=0;" edge="1" parent="1">
          <mxGeometry width="50" height="50" relative="1" as="geometry">
            <mxPoint x="159" y="641" as="sourcePoint" />
            <mxPoint x="159" y="201" as="targetPoint" />
          </mxGeometry>
        </mxCell>
        <mxCell id="N5g3DJbwjMN8JbCqIwk_-131" value="" style="endArrow=none;dashed=1;html=1;dashPattern=1 3;strokeWidth=2;rounded=0;" edge="1" parent="1">
          <mxGeometry width="50" height="50" relative="1" as="geometry">
            <mxPoint x="387" y="642" as="sourcePoint" />
            <mxPoint x="387" y="202" as="targetPoint" />
          </mxGeometry>
        </mxCell>
        <mxCell id="N5g3DJbwjMN8JbCqIwk_-132" value="" style="endArrow=none;dashed=1;html=1;dashPattern=1 3;strokeWidth=2;rounded=0;" edge="1" parent="1">
          <mxGeometry width="50" height="50" relative="1" as="geometry">
            <mxPoint x="662" y="641" as="sourcePoint" />
            <mxPoint x="662" y="201" as="targetPoint" />
          </mxGeometry>
        </mxCell>
        <mxCell id="N5g3DJbwjMN8JbCqIwk_-133" value="" style="endArrow=none;dashed=1;html=1;dashPattern=1 3;strokeWidth=2;rounded=0;" edge="1" parent="1">
          <mxGeometry width="50" height="50" relative="1" as="geometry">
            <mxPoint x="660" y="640" as="sourcePoint" />
            <mxPoint x="-62" y="640" as="targetPoint" />
          </mxGeometry>
        </mxCell>
        <mxCell id="N5g3DJbwjMN8JbCqIwk_-134" value="" style="endArrow=classic;html=1;rounded=0;dashed=1;" edge="1" parent="1">
          <mxGeometry width="50" height="50" relative="1" as="geometry">
            <mxPoint x="339" y="640" as="sourcePoint" />
            <mxPoint x="339" y="720" as="targetPoint" />
          </mxGeometry>
        </mxCell>
        <mxCell id="N5g3DJbwjMN8JbCqIwk_-135" value="" style="endArrow=none;dashed=1;html=1;dashPattern=1 3;strokeWidth=2;rounded=0;" edge="1" parent="1">
          <mxGeometry width="50" height="50" relative="1" as="geometry">
            <mxPoint x="-63" y="216" as="sourcePoint" />
            <mxPoint x="100" y="214" as="targetPoint" />
          </mxGeometry>
        </mxCell>
        <mxCell id="N5g3DJbwjMN8JbCqIwk_-136" value="" style="endArrow=none;dashed=1;html=1;dashPattern=1 3;strokeWidth=2;rounded=0;" edge="1" parent="1">
          <mxGeometry width="50" height="50" relative="1" as="geometry">
            <mxPoint x="160" y="208" as="sourcePoint" />
            <mxPoint x="320" y="208" as="targetPoint" />
          </mxGeometry>
        </mxCell>
        <mxCell id="N5g3DJbwjMN8JbCqIwk_-137" value="" style="endArrow=none;dashed=1;html=1;dashPattern=1 3;strokeWidth=2;rounded=0;" edge="1" parent="1">
          <mxGeometry width="50" height="50" relative="1" as="geometry">
            <mxPoint x="386" y="209" as="sourcePoint" />
            <mxPoint x="560" y="207" as="targetPoint" />
          </mxGeometry>
        </mxCell>
        <mxCell id="N5g3DJbwjMN8JbCqIwk_-138" value="" style="endArrow=none;dashed=1;html=1;dashPattern=1 3;strokeWidth=2;rounded=0;" edge="1" parent="1">
          <mxGeometry width="50" height="50" relative="1" as="geometry">
            <mxPoint x="662" y="208" as="sourcePoint" />
            <mxPoint x="810" y="208" as="targetPoint" />
          </mxGeometry>
        </mxCell>
        <mxCell id="N5g3DJbwjMN8JbCqIwk_-139" value="" style="endArrow=none;dashed=1;html=1;dashPattern=1 3;strokeWidth=2;rounded=0;" edge="1" parent="1">
          <mxGeometry width="50" height="50" relative="1" as="geometry">
            <mxPoint x="-65" y="248" as="sourcePoint" />
            <mxPoint x="-35" y="248" as="targetPoint" />
          </mxGeometry>
        </mxCell>
        <mxCell id="N5g3DJbwjMN8JbCqIwk_-140" value="" style="endArrow=none;dashed=1;html=1;dashPattern=1 3;strokeWidth=2;rounded=0;" edge="1" parent="1">
          <mxGeometry width="50" height="50" relative="1" as="geometry">
            <mxPoint x="-64" y="288" as="sourcePoint" />
            <mxPoint x="-34" y="288" as="targetPoint" />
          </mxGeometry>
        </mxCell>
        <mxCell id="N5g3DJbwjMN8JbCqIwk_-141" value="" style="endArrow=none;dashed=1;html=1;dashPattern=1 3;strokeWidth=2;rounded=0;" edge="1" parent="1">
          <mxGeometry width="50" height="50" relative="1" as="geometry">
            <mxPoint x="-63" y="336" as="sourcePoint" />
            <mxPoint x="-33" y="336" as="targetPoint" />
          </mxGeometry>
        </mxCell>
        <mxCell id="N5g3DJbwjMN8JbCqIwk_-142" value="" style="endArrow=none;dashed=1;html=1;dashPattern=1 3;strokeWidth=2;rounded=0;" edge="1" parent="1">
          <mxGeometry width="50" height="50" relative="1" as="geometry">
            <mxPoint x="159" y="289" as="sourcePoint" />
            <mxPoint x="189" y="289" as="targetPoint" />
          </mxGeometry>
        </mxCell>
        <mxCell id="N5g3DJbwjMN8JbCqIwk_-143" value="" style="endArrow=none;dashed=1;html=1;dashPattern=1 3;strokeWidth=2;rounded=0;" edge="1" parent="1">
          <mxGeometry width="50" height="50" relative="1" as="geometry">
            <mxPoint x="157" y="328" as="sourcePoint" />
            <mxPoint x="187" y="328" as="targetPoint" />
          </mxGeometry>
        </mxCell>
        <mxCell id="N5g3DJbwjMN8JbCqIwk_-146" value="" style="endArrow=none;dashed=1;html=1;dashPattern=1 3;strokeWidth=2;rounded=0;" edge="1" parent="1">
          <mxGeometry width="50" height="50" relative="1" as="geometry">
            <mxPoint x="157" y="248" as="sourcePoint" />
            <mxPoint x="187" y="248" as="targetPoint" />
          </mxGeometry>
        </mxCell>
        <mxCell id="N5g3DJbwjMN8JbCqIwk_-147" value="" style="endArrow=none;dashed=1;html=1;dashPattern=1 3;strokeWidth=2;rounded=0;" edge="1" parent="1">
          <mxGeometry width="50" height="50" relative="1" as="geometry">
            <mxPoint x="158" y="360" as="sourcePoint" />
            <mxPoint x="188" y="360" as="targetPoint" />
          </mxGeometry>
        </mxCell>
        <mxCell id="N5g3DJbwjMN8JbCqIwk_-148" value="" style="endArrow=none;dashed=1;html=1;dashPattern=1 3;strokeWidth=2;rounded=0;" edge="1" parent="1">
          <mxGeometry width="50" height="50" relative="1" as="geometry">
            <mxPoint x="158" y="400" as="sourcePoint" />
            <mxPoint x="188" y="400" as="targetPoint" />
          </mxGeometry>
        </mxCell>
        <mxCell id="N5g3DJbwjMN8JbCqIwk_-149" value="" style="endArrow=none;dashed=1;html=1;dashPattern=1 3;strokeWidth=2;rounded=0;" edge="1" parent="1">
          <mxGeometry width="50" height="50" relative="1" as="geometry">
            <mxPoint x="158" y="440" as="sourcePoint" />
            <mxPoint x="188" y="440" as="targetPoint" />
          </mxGeometry>
        </mxCell>
        <mxCell id="N5g3DJbwjMN8JbCqIwk_-150" value="" style="endArrow=none;dashed=1;html=1;dashPattern=1 3;strokeWidth=2;rounded=0;" edge="1" parent="1">
          <mxGeometry width="50" height="50" relative="1" as="geometry">
            <mxPoint x="158" y="480" as="sourcePoint" />
            <mxPoint x="188" y="480" as="targetPoint" />
          </mxGeometry>
        </mxCell>
        <mxCell id="N5g3DJbwjMN8JbCqIwk_-151" value="" style="endArrow=none;dashed=1;html=1;dashPattern=1 3;strokeWidth=2;rounded=0;" edge="1" parent="1">
          <mxGeometry width="50" height="50" relative="1" as="geometry">
            <mxPoint x="158" y="520" as="sourcePoint" />
            <mxPoint x="188" y="520" as="targetPoint" />
          </mxGeometry>
        </mxCell>
        <mxCell id="N5g3DJbwjMN8JbCqIwk_-152" value="" style="endArrow=none;dashed=1;html=1;dashPattern=1 3;strokeWidth=2;rounded=0;" edge="1" parent="1">
          <mxGeometry width="50" height="50" relative="1" as="geometry">
            <mxPoint x="158" y="560" as="sourcePoint" />
            <mxPoint x="188" y="560" as="targetPoint" />
          </mxGeometry>
        </mxCell>
        <mxCell id="N5g3DJbwjMN8JbCqIwk_-153" value="" style="endArrow=none;dashed=1;html=1;dashPattern=1 3;strokeWidth=2;rounded=0;" edge="1" parent="1">
          <mxGeometry width="50" height="50" relative="1" as="geometry">
            <mxPoint x="388" y="273" as="sourcePoint" />
            <mxPoint x="418" y="273" as="targetPoint" />
          </mxGeometry>
        </mxCell>
        <mxCell id="N5g3DJbwjMN8JbCqIwk_-154" value="" style="endArrow=none;dashed=1;html=1;dashPattern=1 3;strokeWidth=2;rounded=0;" edge="1" parent="1">
          <mxGeometry width="50" height="50" relative="1" as="geometry">
            <mxPoint x="386" y="321" as="sourcePoint" />
            <mxPoint x="416" y="321" as="targetPoint" />
          </mxGeometry>
        </mxCell>
        <mxCell id="N5g3DJbwjMN8JbCqIwk_-155" value="" style="endArrow=none;dashed=1;html=1;dashPattern=1 3;strokeWidth=2;rounded=0;" edge="1" parent="1">
          <mxGeometry width="50" height="50" relative="1" as="geometry">
            <mxPoint x="387" y="361" as="sourcePoint" />
            <mxPoint x="417" y="361" as="targetPoint" />
          </mxGeometry>
        </mxCell>
        <mxCell id="N5g3DJbwjMN8JbCqIwk_-156" value="" style="endArrow=none;dashed=1;html=1;dashPattern=1 3;strokeWidth=2;rounded=0;" edge="1" parent="1">
          <mxGeometry width="50" height="50" relative="1" as="geometry">
            <mxPoint x="385" y="240" as="sourcePoint" />
            <mxPoint x="415" y="240" as="targetPoint" />
          </mxGeometry>
        </mxCell>
        <mxCell id="N5g3DJbwjMN8JbCqIwk_-157" value="" style="endArrow=none;dashed=1;html=1;dashPattern=1 3;strokeWidth=2;rounded=0;" edge="1" parent="1">
          <mxGeometry width="50" height="50" relative="1" as="geometry">
            <mxPoint x="387" y="401" as="sourcePoint" />
            <mxPoint x="417" y="401" as="targetPoint" />
          </mxGeometry>
        </mxCell>
        <mxCell id="N5g3DJbwjMN8JbCqIwk_-158" value="" style="endArrow=none;dashed=1;html=1;dashPattern=1 3;strokeWidth=2;rounded=0;" edge="1" parent="1">
          <mxGeometry width="50" height="50" relative="1" as="geometry">
            <mxPoint x="387" y="441" as="sourcePoint" />
            <mxPoint x="417" y="441" as="targetPoint" />
          </mxGeometry>
        </mxCell>
        <mxCell id="N5g3DJbwjMN8JbCqIwk_-159" value="" style="endArrow=none;dashed=1;html=1;dashPattern=1 3;strokeWidth=2;rounded=0;" edge="1" parent="1">
          <mxGeometry width="50" height="50" relative="1" as="geometry">
            <mxPoint x="386" y="474" as="sourcePoint" />
            <mxPoint x="416" y="474" as="targetPoint" />
          </mxGeometry>
        </mxCell>
        <mxCell id="N5g3DJbwjMN8JbCqIwk_-160" value="" style="endArrow=none;dashed=1;html=1;dashPattern=1 3;strokeWidth=2;rounded=0;" edge="1" parent="1">
          <mxGeometry width="50" height="50" relative="1" as="geometry">
            <mxPoint x="386" y="521" as="sourcePoint" />
            <mxPoint x="416" y="521" as="targetPoint" />
          </mxGeometry>
        </mxCell>
        <mxCell id="N5g3DJbwjMN8JbCqIwk_-161" value="" style="endArrow=none;dashed=1;html=1;dashPattern=1 3;strokeWidth=2;rounded=0;" edge="1" parent="1">
          <mxGeometry width="50" height="50" relative="1" as="geometry">
            <mxPoint x="661" y="248" as="sourcePoint" />
            <mxPoint x="691" y="248" as="targetPoint" />
          </mxGeometry>
        </mxCell>
        <mxCell id="N5g3DJbwjMN8JbCqIwk_-162" value="" style="endArrow=none;dashed=1;html=1;dashPattern=1 3;strokeWidth=2;rounded=0;" edge="1" parent="1">
          <mxGeometry width="50" height="50" relative="1" as="geometry">
            <mxPoint x="661" y="288" as="sourcePoint" />
            <mxPoint x="691" y="288" as="targetPoint" />
          </mxGeometry>
        </mxCell>
        <mxCell id="N5g3DJbwjMN8JbCqIwk_-163" value="" style="endArrow=none;dashed=1;html=1;dashPattern=1 3;strokeWidth=2;rounded=0;" edge="1" parent="1">
          <mxGeometry width="50" height="50" relative="1" as="geometry">
            <mxPoint x="661" y="328" as="sourcePoint" />
            <mxPoint x="691" y="328" as="targetPoint" />
          </mxGeometry>
        </mxCell>
        <mxCell id="N5g3DJbwjMN8JbCqIwk_-164" value="" style="endArrow=none;dashed=1;html=1;dashPattern=1 3;strokeWidth=2;rounded=0;" edge="1" parent="1">
          <mxGeometry width="50" height="50" relative="1" as="geometry">
            <mxPoint x="661" y="361" as="sourcePoint" />
            <mxPoint x="691" y="361" as="targetPoint" />
          </mxGeometry>
        </mxCell>
        <mxCell id="N5g3DJbwjMN8JbCqIwk_-165" value="" style="endArrow=none;dashed=1;html=1;dashPattern=1 3;strokeWidth=2;rounded=0;" edge="1" parent="1">
          <mxGeometry width="50" height="50" relative="1" as="geometry">
            <mxPoint x="-22" y="203" as="sourcePoint" />
            <mxPoint x="-22" y="213" as="targetPoint" />
          </mxGeometry>
        </mxCell>
        <mxCell id="N5g3DJbwjMN8JbCqIwk_-166" value="" style="endArrow=none;dashed=1;html=1;dashPattern=1 3;strokeWidth=2;rounded=0;" edge="1" parent="1">
          <mxGeometry width="50" height="50" relative="1" as="geometry">
            <mxPoint x="98" y="201" as="sourcePoint" />
            <mxPoint x="98" y="211" as="targetPoint" />
          </mxGeometry>
        </mxCell>
        <mxCell id="N5g3DJbwjMN8JbCqIwk_-167" value="" style="endArrow=none;dashed=1;html=1;dashPattern=1 3;strokeWidth=2;rounded=0;" edge="1" parent="1">
          <mxGeometry width="50" height="50" relative="1" as="geometry">
            <mxPoint x="314" y="200" as="sourcePoint" />
            <mxPoint x="314" y="210" as="targetPoint" />
          </mxGeometry>
        </mxCell>
        <mxCell id="N5g3DJbwjMN8JbCqIwk_-168" value="" style="endArrow=none;dashed=1;html=1;dashPattern=1 3;strokeWidth=2;rounded=0;" edge="1" parent="1">
          <mxGeometry width="50" height="50" relative="1" as="geometry">
            <mxPoint x="220" y="199" as="sourcePoint" />
            <mxPoint x="220" y="209" as="targetPoint" />
          </mxGeometry>
        </mxCell>
        <mxCell id="N5g3DJbwjMN8JbCqIwk_-169" value="" style="endArrow=none;dashed=1;html=1;dashPattern=1 3;strokeWidth=2;rounded=0;" edge="1" parent="1">
          <mxGeometry width="50" height="50" relative="1" as="geometry">
            <mxPoint x="558" y="199" as="sourcePoint" />
            <mxPoint x="558" y="209" as="targetPoint" />
          </mxGeometry>
        </mxCell>
        <mxCell id="N5g3DJbwjMN8JbCqIwk_-170" value="" style="endArrow=none;dashed=1;html=1;dashPattern=1 3;strokeWidth=2;rounded=0;" edge="1" parent="1">
          <mxGeometry width="50" height="50" relative="1" as="geometry">
            <mxPoint x="455" y="200" as="sourcePoint" />
            <mxPoint x="455" y="210" as="targetPoint" />
          </mxGeometry>
        </mxCell>
      </root>
    </mxGraphModel>
  </diagram>
</mxfile>
